<svg width="44" height="52" viewBox="0 0 44 52" fill="none" xmlns="http://www.w3.org/2000/svg">
<path d="M32.7989 49.2628C33.3109 50.2677 32.7749 51.5023 31.6839 51.799C31.2963 51.9043 30.8752 51.9569 30.4014 51.9569C27.1282 51.9569 25.171 47.9612 24.5968 45.9896C24.5968 45.9896 25.2045 45.9082 25.7644 45.7599C26.4535 45.578 26.9129 45.3627 26.9129 45.3627C27.3101 46.7935 29.0136 49.5308 30.8082 49.459C31.2867 49.4398 31.7413 49.3106 32.1194 49.0809C32.3586 48.9374 32.6697 49.0139 32.7989 49.2628ZM38.1633 15.3871C37.7135 14.8033 36.8951 14.6406 36.2587 15.0426C34.7944 15.971 33.0525 16.2868 31.3537 15.9231C27.7934 15.167 25.5108 11.6546 26.2668 8.09903C27.0277 4.53872 30.5354 2.2561 34.0957 3.01218L34.2345 3.04568C34.2441 3.05047 34.2584 3.05047 34.268 3.05525C35.0289 3.21796 35.7802 2.7442 35.962 1.98333C36.1438 1.21289 35.6701 0.437656 34.8949 0.255812C34.8279 0.241456 34.7561 0.222315 34.6891 0.207959C29.5783 -0.87832 24.5441 2.39966 23.4578 7.50564C22.3716 12.6116 25.6447 17.6506 30.7555 18.7369C32.7319 19.158 34.7417 18.9283 36.5554 18.1244C39.0246 22.1824 38.8189 27.652 35.9189 32.715C33.0046 37.8018 26.8794 42.836 18.1413 42.5537C19.1558 41.7737 20.1368 40.7735 21.0125 39.4863C27.0134 39.0029 33.1865 33.8682 35.0336 27.676C35.2586 26.9151 34.8279 26.1159 34.067 25.891C33.3061 25.6661 32.507 26.0968 32.2821 26.8577C30.7125 32.1072 25.1758 36.5911 20.1846 36.6485C19.687 36.6533 19.2276 36.9165 18.9739 37.3424C16.8732 40.8118 13.8584 41.9029 11.7002 42.2091C8.81461 42.6159 6.0391 41.8742 4.08188 40.7879C18.4906 32.1742 23.2903 22.8428 23.4961 22.4312C23.8502 21.723 23.5631 20.8616 22.8597 20.5075C22.1514 20.1534 21.2901 20.4357 20.9312 21.1439C20.8833 21.2397 15.8252 30.9683 0.736909 39.4049C0.334938 39.6298 0.0669571 40.0318 0.00953266 40.4864C-0.0431064 40.941 0.124381 41.4004 0.459357 41.7115C2.81854 43.8936 6.51285 45.1856 10.1114 45.1856C10.7814 45.1856 11.4466 45.1426 12.0974 45.0469C12.5185 44.9894 12.9683 44.9033 13.4325 44.7884C13.7483 44.8698 14.0881 44.9512 14.4853 45.0325C14.8633 45.1091 15.2701 45.1856 15.696 45.2383C16.6865 45.3627 17.6436 45.4201 18.5815 45.4297L20.8785 51.1003C21.1034 51.6602 21.6442 52 22.2089 52C22.3907 52 22.5725 51.9665 22.7448 51.8947C23.4818 51.598 23.8359 50.7606 23.5392 50.0236L21.6155 45.2766C29.7219 44.3243 35.4739 39.2518 38.4073 34.1362C42.1351 27.6281 42.0442 20.4405 38.1585 15.3824L38.1633 15.3871ZM43.0826 6.54857C41.1924 5.08425 38.7662 4.92633 38.2016 4.97418C37.1488 5.06511 37.0866 7.93633 38.0054 8.25695C38.9816 8.59671 40.2688 8.11817 41.3695 7.78798C41.982 7.60614 42.5562 7.40515 42.9726 7.25202C43.2645 7.14196 43.3315 6.73999 43.0826 6.54857ZM41.4891 8.88383C40.4172 9.05132 38.7662 9.09439 38.5174 9.08482C38.2063 9.07046 37.7996 9.14703 37.5316 9.79305C37.278 10.4151 37.4694 11.0468 38.0054 11.1665C39.886 11.5828 41.1733 10.1998 41.7714 9.34801C41.9246 9.13267 41.7523 8.84076 41.4891 8.88383Z" fill="#004D33"/>
</svg>
